# xmcd
#
# Track frame offsets: 
#        150
#        8300
#        28727
#        52816
#        69259
#        87692
#        111856
#        130375
#        147403
#        169024
#        189893
#        216945
#
# Disc length: 2972 seconds
#
# Revision: 1
# Processed by: cddbd v1.5.2PL0 Copyright (c) Steve Scherf et al.
# Submitted via: ExactAudioCopy v0.99pb5
#
DISCID=9f0b9a0c
DTITLE=Frank McComb - Straight From The Vault
DYEAR=2004
DGENRE=Soul
TTITLE0=White Line In The Sky
TTITLE1=I'd Be A Fool
TTITLE2=To The Left
TTITLE3=The Thing I Failed To Do
TTITLE4=Each Day
TTITLE5=King Of The Open Road
TTITLE6=Morning Glory
TTITLE7=The Things That You Do
TTITLE8=Left Alone
TTITLE9=Still Has A Hold On Me
TTITLE10=It Was You
TTITLE11=A Good Past...A Better Future
EXTD=
EXTT0=
EXTT1=
EXTT2=
EXTT3=
EXTT4=
EXTT5=
EXTT6=
EXTT7=
EXTT8=
EXTT9=
EXTT10=
EXTT11=
PLAYORDER=
